<svg width="36" height="36" viewBox="0 0 36 36" fill="none" xmlns="http://www.w3.org/2000/svg">
<rect width="36" height="36" rx="18" fill="#2B2B2B"/>
<g clip-path="url(#clip0_61_638)">
<path d="M24.5604 17.4918C24.3162 15.8616 22.8312 14.7 21.1812 14.7H19.287C18.9438 14.7 18.66 14.9838 18.66 15.327C18.66 15.6702 18.9438 15.954 19.287 15.954H21.201C22.257 15.954 23.2074 16.7064 23.3262 17.7558C23.4384 18.6996 22.9038 19.5312 22.1052 19.881L23.0292 20.805C24.105 20.1318 24.7716 18.8844 24.5604 17.4918ZM12.7992 12.4296C12.5418 12.1722 12.126 12.1722 11.8686 12.4296C11.6112 12.687 11.6112 13.1028 11.8686 13.3602L13.4526 14.9442C12.1722 15.4722 11.2944 16.7724 11.4132 18.2706C11.5518 20.013 13.1094 21.3 14.8518 21.3H16.713C17.0562 21.3 17.34 21.0162 17.34 20.673C17.34 20.3298 17.0562 20.046 16.713 20.046H14.8056C13.7298 20.046 12.7596 19.2606 12.6606 18.1848C12.5616 17.0496 13.3932 16.0926 14.4756 15.9738L15.8616 17.3598C15.5778 17.4192 15.36 17.6634 15.36 17.967V18.033C15.36 18.3762 15.6438 18.66 15.987 18.66H17.1618L18.66 20.1582V21.3H19.8018L21.9798 23.478C22.2372 23.7354 22.653 23.7354 22.9104 23.478C23.1678 23.2206 23.1678 22.8048 22.9104 22.5474L12.7992 12.4296ZM20.64 17.967C20.64 17.6238 20.3562 17.34 20.013 17.34H19.5774L20.5608 18.3234C20.607 18.2376 20.64 18.1386 20.64 18.033V17.967Z" fill="white"/>
</g>
<defs>
<clipPath id="clip0_61_638">
<rect width="15.84" height="15.84" fill="white" transform="translate(10.08 10.08)"/>
</clipPath>
</defs>
</svg>
