<?xml version="1.0" encoding="UTF-8" standalone="no"?>
<svg
   id="Layer_1"
   data-name="Layer 1"
   viewBox="0 0 36.000001 36.000001"
   version="1.1"
   width="36"
   height="36"
   xmlns="http://www.w3.org/2000/svg"
   xmlns:svg="http://www.w3.org/2000/svg"
   xmlns:rdf="http://www.w3.org/1999/02/22-rdf-syntax-ns#"
   xmlns:cc="http://creativecommons.org/ns#"
   xmlns:dc="http://purl.org/dc/elements/1.1/">
  <defs
     id="defs1" />
  <title
     id="title1">litecoin-ltc-logo</title>
  <g
     id="g1"
     transform="scale(0.43583443)">
    <circle
       cx="41.299999"
       cy="41.299999"
       r="36.830002"
       style="fill:#ffffff"
       id="circle1" />
    <path
       d="m 41.3,0 a 41.3,41.3 0 1 0 41.3,41.3 v 0 A 41.18,41.18 0 0 0 41.54,0 Z M 42,42.7 37.7,57.2 h 23 a 1.16,1.16 0 0 1 1.2,1.12 v 0.38 l -2,6.9 a 1.49,1.49 0 0 1 -1.5,1.1 H 23.2 l 5.9,-20.1 -6.6,2 1.5,-4.6 6.6,-2 8.3,-28.2 a 1.51,1.51 0 0 1 1.5,-1.1 h 8.9 a 1.16,1.16 0 0 1 1.2,1.12 v 0.38 l -7,23.8 6.6,-2 -1.4,4.8 z"
       style="fill:#345d9d"
       id="path1" />
  </g>
  <metadata
     id="metadata1">
    <rdf:RDF>
      <cc:Work
         rdf:about="">
        <dc:title>litecoin-ltc-logo</dc:title>
      </cc:Work>
    </rdf:RDF>
  </metadata>
</svg>
