<svg width="36" height="35" viewBox="0 0 36 35" fill="none" xmlns="http://www.w3.org/2000/svg">
<path d="M18 34.4966C27.9448 34.4966 36 26.7724 36 17.2483C36 7.72414 27.9448 0 18 0C8.05517 0 0 7.72414 0 17.2483C0 26.7724 8.06207 34.4966 18 34.4966Z" fill="#FF060A"/>
<path d="M28.1241 14.1517C27.131 13.269 25.7517 11.9241 24.6344 10.9724L24.5655 10.931C24.4551 10.8483 24.331 10.7793 24.2 10.731C21.4965 10.2483 8.91719 7.99311 8.67581 8.0207C8.60685 8.02759 8.53788 8.05518 8.48271 8.08966L8.42064 8.13794C8.34478 8.2138 8.28271 8.30346 8.24823 8.4069L8.23444 8.44828V8.67587V8.71035C9.64823 12.4897 15.2413 24.8621 16.3448 27.7724C16.4137 27.9724 16.5379 28.3448 16.7724 28.3655H16.8275C16.9517 28.3655 17.4896 27.6828 17.4896 27.6828C17.4896 27.6828 27.0965 16.5241 28.0689 15.3379C28.1931 15.1931 28.3034 15.0345 28.4 14.869C28.4275 14.7379 28.4137 14.6069 28.3655 14.4828C28.3172 14.3586 28.2275 14.2414 28.1241 14.1517ZM19.9448 15.4552L24.0413 12.2L26.4482 14.3241L19.9448 15.4552ZM18.3517 15.2414L11.2965 9.69656L22.7172 11.7172L18.3517 15.2414ZM18.9862 16.6897L26.2068 15.5724L17.9517 25.1104L18.9862 16.6897ZM10.3379 10.2552L17.7655 16.2897L16.6896 25.1173L10.3379 10.2552Z" fill="white"/>
</svg>
