<?xml version="1.0" encoding="UTF-8" standalone="no"?>
<svg
   width="36"
   height="36"
   viewBox="0 0 36 36"
   fill="none"
   version="1.1"
   id="svg2"
   xmlns="http://www.w3.org/2000/svg"
   xmlns:svg="http://www.w3.org/2000/svg">
  <g
     id="g3"
     transform="scale(1.2)">
    <circle
       cx="15"
       cy="15"
       r="15"
       fill="#50af95"
       id="circle1" />
    <g
       clip-path="url(#clip0_108_3764)"
       id="g2">
      <path
         fill-rule="evenodd"
         clip-rule="evenodd"
         d="M 9.29601,7.07908 6.01398,14.1698 c -0.01249,0.0264 -0.01645,0.0562 -0.01129,0.085 0.00515,0.0289 0.01914,0.0553 0.03993,0.0754 l 8.86398,8.7363 c 0.0252,0.0249 0.0587,0.0387 0.0936,0.0387 0.0349,0 0.0684,-0.0138 0.0936,-0.0387 l 8.864,-8.7358 c 0.0208,-0.0201 0.0347,-0.0465 0.0399,-0.0753 0.0052,-0.0289 0.0012,-0.0587 -0.0113,-0.085 L 20.7044,7.07963 C 20.6938,7.05582 20.6768,7.03564 20.6553,7.02152 20.6339,7.0074 20.6089,6.99993 20.5835,7 H 9.41798 C 9.3924,6.99967 9.36727,7.00696 9.34563,7.02099 9.32399,7.03503 9.30676,7.0552 9.29601,7.07908 Z"
         fill="#ffffff"
         id="path1" />
      <path
         fill-rule="evenodd"
         clip-rule="evenodd"
         d="m 16.1387,14.898 c -0.0636,0.0049 -0.3924,0.0251 -1.1258,0.0251 -0.5833,0 -0.9975,-0.018 -1.1428,-0.0251 -2.2543,-0.102 -3.93696,-0.5056 -3.93696,-0.9889 0,-0.4833 1.68266,-0.8863 3.93696,-0.99 v 1.5769 c 0.1474,0.0109 0.5695,0.0365 1.1529,0.0365 0.7,0 1.0505,-0.03 1.1136,-0.036 v -1.5763 c 2.2495,0.1031 3.9285,0.5067 3.9285,0.9889 0,0.4822 -1.6784,0.8858 -3.9285,0.9883 z m 0,-2.1409 v -1.411 h 3.1394 V 9.19431 h -8.5474 v 2.15179 h 3.1389 v 1.4105 c -2.5513,0.1205 -4.46994,0.6403 -4.46994,1.2632 0,0.6229 1.91864,1.1422 4.46994,1.2633 v 4.5217 h 2.2686 v -4.5234 c 2.5454,-0.1205 4.4609,-0.6398 4.4609,-1.2621 0,-0.6224 -1.9139,-1.1416 -4.4609,-1.2627 z"
         fill="#50af95"
         id="path2" />
    </g>
  </g>
  <defs
     id="defs2">
    <clipPath
       id="clip0_108_3764">
      <rect
         width="18"
         height="16.105301"
         fill="#ffffff"
         transform="translate(6,7)"
         id="rect2"
         x="0"
         y="0" />
    </clipPath>
  </defs>
</svg>
